<svg width="512" height="512" viewBox="0 0 512 512" fill="none" xmlns="http://www.w3.org/2000/svg">
  <rect width="512" height="512" rx="96" fill="#0F172A"/>
  <path d="M128 174C128 151.909 145.909 134 168 134H344C366.091 134 384 151.909 384 174V338C384 360.091 366.091 378 344 378H168C145.909 378 128 360.091 128 338V174Z" fill="#F8FAFC"/>
  <path d="M164 196H348" stroke="#0F172A" stroke-width="22" stroke-linecap="round"/>
  <path d="M176 230L198 320H320L344 230" stroke="#2563EB" stroke-width="22" stroke-linecap="round" stroke-linejoin="round"/>
  <circle cx="214" cy="342" r="16" fill="#0F172A"/>
  <circle cx="304" cy="342" r="16" fill="#0F172A"/>
  <path d="M208 285L244 250L274 276L316 224" stroke="#14B8A6" stroke-width="18" stroke-linecap="round" stroke-linejoin="round"/>
  <path d="M184 132L214 92H298L328 132" stroke="#14B8A6" stroke-width="22" stroke-linecap="round" stroke-linejoin="round"/>
</svg>
